HIERARCHY
ROOT Hips
{
	OFFSET 0.000000 0.000000 0.000000
	CHANNELS 6 Xposition Yposition Zposition Zrotation Yrotation Xrotation 
	JOINT LHipJoint
	{
		OFFSET 0.000000 0.000000 0.000000
		CHANNELS 3 Zrotation Yrotation Xrotation
		JOINT LeftUpLeg
		{
			OFFSET 1.363060 -1.794630 0.839290
			CHANNELS 3 Zrotation Yrotation Xrotation
			JOINT LeftLeg
			{
				OFFSET 2.448110 -6.726130 0.000000
				CHANNELS 3 Zrotation Yrotation Xrotation
				JOINT LeftFoot
				{
					OFFSET 2.562200 -7.039590 0.000000
					CHANNELS 3 Zrotation Yrotation Xrotation
					JOINT LeftToeBase
					{
						OFFSET 0.157640 -0.433110 2.322550
						CHANNELS 3 Zrotation Yrotation Xrotation
						End Site
						{
							OFFSET 0.000000 0.000000 0.000000
						}
					}
				}
			}
		}
	}
	JOINT RHipJoint
	{
		OFFSET 0.000000 0.000000 0.000000
		CHANNELS 3 Zrotation Yrotation Xrotation
		JOINT RightUpLeg
		{
			OFFSET -1.305520 -1.794630 0.839290
			CHANNELS 3 Zrotation Yrotation Xrotation
			JOINT RightLeg
			{
				OFFSET -2.542530 -6.985550 0.000000
				CHANNELS 3 Zrotation Yrotation Xrotation
				JOINT RightFoot
				{
					OFFSET -2.568260 -7.056230 0.000000
					CHANNELS 3 Zrotation Yrotation Xrotation
					JOINT RightToeBase
					{
						OFFSET -0.164730 -0.452590 2.363150
						CHANNELS 3 Zrotation Yrotation Xrotation
						End Site
						{
							OFFSET 0.000000 0.000000 0.000000
						}
					}
				}
			}
		}
	}
	JOINT LowerBack
	{
		OFFSET 0.000000 0.000000 0.000000
		CHANNELS 3 Zrotation Yrotation Xrotation
		JOINT Spine
		{
			OFFSET 0.028270 2.035590 -0.193380
			CHANNELS 3 Zrotation Yrotation Xrotation
			JOINT Spine1
			{
				OFFSET 0.056720 2.048850 -0.042750
				CHANNELS 3 Zrotation Yrotation Xrotation
				JOINT Neck
				{
					OFFSET 0.000000 0.000000 0.000000
					CHANNELS 3 Zrotation Yrotation Xrotation
					JOINT Neck1
					{
						OFFSET -0.054170 1.746240 0.172020
						CHANNELS 3 Zrotation Yrotation Xrotation
						JOINT Head
						{
							OFFSET 0.104070 1.761360 -0.123970
							CHANNELS 3 Zrotation Yrotation Xrotation
							End Site
							{
								OFFSET 0.000000 0.000000 0.000000
							}
						}
					}
				}
				JOINT LeftShoulder
				{
					OFFSET 0.000000 0.000000 0.000000
					CHANNELS 3 Zrotation Yrotation Xrotation
					JOINT LeftArm
					{
						OFFSET 3.362410 1.200890 -0.311210
						CHANNELS 3 Zrotation Yrotation Xrotation
						JOINT LeftForeArm
						{
							OFFSET 4.983000 -0.000000 -0.000000
							CHANNELS 3 Zrotation Yrotation Xrotation
							JOINT LeftHand
							{
								OFFSET 3.483560 -0.000000 -0.000000
								CHANNELS 3 Zrotation Yrotation Xrotation
								JOINT LeftFingerBase
								{
									OFFSET 0.000000 0.000000 0.000000
									CHANNELS 3 Zrotation Yrotation Xrotation
									JOINT LeftHandIndex1
									{
										OFFSET 0.715260 -0.000000 -0.000000
										CHANNELS 3 Zrotation Yrotation Xrotation
										End Site
										{
											OFFSET 0.000000 0.000000 0.000000
										}
									}
								}
								JOINT LThumb
								{
									OFFSET 0.000000 0.000000 0.000000
									CHANNELS 3 Zrotation Yrotation Xrotation
									End Site
									{
										OFFSET 0.000000 0.000000 0.000000
									}
								}
							}
						}
					}
				}
				JOINT RightShoulder
				{
					OFFSET 0.000000 0.000000 0.000000
					CHANNELS 3 Zrotation Yrotation Xrotation
					JOINT RightArm
					{
						OFFSET -3.136600 1.374050 -0.404650
						CHANNELS 3 Zrotation Yrotation Xrotation
						JOINT RightForeArm
						{
							OFFSET -5.241900 -0.000000 -0.000000
							CHANNELS 3 Zrotation Yrotation Xrotation
							JOINT RightHand
							{
								OFFSET -3.444170 -0.000000 -0.000000
								CHANNELS 3 Zrotation Yrotation Xrotation
								JOINT RightFingerBase
								{
									OFFSET 0.000000 0.000000 0.000000
									CHANNELS 3 Zrotation Yrotation Xrotation
									JOINT RightHandIndex1
									{
										OFFSET -0.622530 -0.000000 -0.000000
										CHANNELS 3 Zrotation Yrotation Xrotation
										End Site
										{
											OFFSET 0.000000 0.000000 0.000000
										}
									}
								}
								JOINT RThumb
								{
									OFFSET 0.000000 0.000000 0.000000
									CHANNELS 3 Zrotation Yrotation Xrotation
									End Site
									{
										OFFSET 0.000000 0.000000 0.000000
									}
								}
							}
						}
					}
				}
			}
		}
	}
}
MOTION
Frames: 5
Frame Time: 0.008333
12.480549 16.926071 2.456251 -173.963180 -84.322978 -173.919449 -12.012335 6.289174 0.949741 -5.060461 11.626242 3.998634 -0.685650 1.887507 25.154109 1.089094 -12.158299 33.808720 -8.166300 0.000000 -70.650200 7.269721 -0.984646 6.714804 13.830129 15.651667 -31.338988 3.740002 0.600229 9.027006 0.756860 3.734476 1.444142 0.037700 0.000000 -26.966300 3.820713 -7.191304 -8.571897 0.946244 -7.742560 -4.205559 -5.078203 -7.834233 1.628661 9.860098 -23.243761 -9.838321 -2.802193 -0.196145 -0.450345 0.000000 0.000000 0.000000 -0.715586 -1.025973 0.437005 -61.691669 -13.743440 5.683821 -2.284512 -51.869500 -0.020618 5.348075 -1.124690 -0.064574 -0.078675 0.272604 -0.000000 0.000000 0.000000 0.000000 0.000000 0.000000 0.000000 15.284397 -23.278667 0.058525 57.253813 -11.588309 -4.211817 2.316327 51.892471 0.005249 1.851236 1.257633 0.020727 0.098302 -0.063133 0.000000 0.000000 0.000000 0.000000 0.000000 0.000000 0.000000 
12.279953 16.925181 2.455406 -166.408733 -83.996304 178.341405 -11.966827 6.243190 0.826967 -4.059376 12.547690 2.850531 -0.582467 1.945319 27.772920 1.253637 -11.558452 34.942758 -8.048500 0.000000 -65.558300 7.404503 -1.040581 6.693319 14.834286 15.622977 -31.022830 3.783335 0.380868 10.375531 0.857359 4.337639 1.702929 0.169200 -0.000000 -23.358300 4.539739 -7.060374 -8.444950 1.080383 -7.699774 -4.195339 -5.136042 -7.792086 1.580268 9.938347 -23.152953 -9.843718 -2.846620 -0.200236 -0.452208 0.000000 0.000000 0.000000 -0.861485 -0.986808 0.416531 -62.458628 -12.958177 5.405361 -2.295965 -51.599913 -0.020010 5.296153 -1.171863 -0.065927 -0.075998 0.267630 -0.000000 0.000000 0.000000 0.000000 0.000000 0.000000 0.000000 15.488309 -23.145597 0.046411 56.915881 -10.951754 -4.357128 2.305709 52.001669 0.005397 1.651783 1.394887 0.020335 0.099858 -0.065879 0.000000 0.000000 0.000000 0.000000 0.000000 0.000000 0.000000 
12.084666 16.926455 2.452853 -160.202240 -83.710645 171.930642 -11.931427 6.133012 0.677385 -3.133822 13.458433 1.668148 -0.459743 1.992799 30.449534 1.414247 -10.218492 35.711800 -7.376700 0.000000 -60.357600 7.493351 -1.129798 6.657645 15.792666 15.515304 -30.653205 3.826667 0.180046 11.658063 0.939577 4.940172 1.649890 0.293100 -0.000000 -19.576900 5.133100 -6.969636 -8.275274 1.188435 -7.679939 -4.172910 -5.201087 -7.772593 1.534632 10.056581 -23.033331 -9.847537 -2.894457 -0.204534 -0.454070 0.000000 0.000000 0.000000 -0.937893 -0.957384 0.397303 -63.248912 -12.182526 5.092836 -2.305146 -51.263647 -0.019516 5.274424 -1.223073 -0.067880 -0.073823 0.262419 -0.000000 0.000000 0.000000 0.000000 0.000000 0.000000 0.000000 15.745471 -23.001426 0.031011 56.677888 -10.267458 -4.541510 2.295851 52.039544 0.005521 1.434780 1.537259 0.019244 0.101264 -0.068609 0.000000 0.000000 0.000000 0.000000 0.000000 0.000000 0.000000 
11.894819 16.930066 2.448150 -155.347726 -83.436133 166.854184 -11.918087 5.984333 0.508810 -2.316553 14.328271 0.465268 -0.328833 2.040545 33.131035 1.575696 -8.128974 36.045006 -6.139700 -0.000000 -55.460600 7.536101 -1.227657 6.602329 16.679747 15.355768 -30.205006 3.871710 0.006578 12.856637 1.003563 5.512282 1.310083 0.393500 0.000000 -15.634200 5.584544 -6.900184 -8.068443 1.263330 -7.661430 -4.140047 -5.273774 -7.753543 1.492204 10.209801 -22.884817 -9.848195 -2.944488 -0.208951 -0.455435 0.000000 0.000000 0.000000 -0.948805 -0.925656 0.378149 -64.049311 -11.415874 4.753535 -2.311832 -50.862268 -0.019123 5.283662 -1.275600 -0.070238 -0.072082 0.256793 -0.000000 0.000000 0.000000 0.000000 0.000000 0.000000 0.000000 16.045641 -22.834698 0.014159 56.551158 -9.550741 -4.763041 2.287026 52.013283 0.005612 1.200199 1.682376 0.017353 0.102591 -0.071395 -0.000000 0.000000 0.000000 0.000000 0.000000 0.000000 0.000000 
11.710308 16.936213 2.440918 -151.703372 -83.168070 162.973731 -11.916547 5.816033 0.329645 -1.627444 15.119212 -0.745249 -0.199028 2.097505 35.772196 1.740243 -5.370334 35.878967 -4.410100 0.000000 -51.150700 7.550862 -1.316054 6.526396 17.477370 15.157514 -29.664173 3.916118 -0.135621 13.943953 1.049119 6.026234 0.744945 0.461100 0.000000 -11.714100 5.898275 -6.838795 -7.831789 1.304224 -7.632088 -4.098414 -5.354591 -7.722621 1.453370 10.392752 -22.710857 -9.844198 -2.996027 -0.213454 -0.455827 0.000000 0.000000 0.000000 -0.901526 -0.886046 0.358890 -64.845272 -10.658346 4.399104 -2.316174 -50.397926 -0.018810 5.322153 -1.326755 -0.072897 -0.070687 0.250639 -0.000000 0.000000 0.000000 0.000000 0.000000 0.000000 0.000000 16.381041 -22.641918 -0.003901 56.541007 -8.817455 -5.016922 2.278883 51.933207 0.005667 0.948169 1.827810 0.014564 0.103871 -0.074266 0.000000 0.000000 0.000000 0.000000 0.000000 0.000000 0.000000 
